<svg version="1.1" id="Layer_1" xmlns="http://www.w3.org/2000/svg" xmlns:xlink="http://www.w3.org/1999/xlink" x="0px" y="0px"
	 width="100%" viewBox="0 0 400 400" enable-background="new 0 0 400 400" xml:space="preserve">
<path fill="#EEEFE9" opacity="1.000000" stroke="none" 
	d="
M278.000000,401.000000 
	C185.362137,401.000000 93.224258,401.000000 1.043196,401.000000 
	C1.043196,267.737122 1.043196,134.474258 1.043196,1.105685 
	C134.221130,1.105685 267.442383,1.105685 400.831818,1.105685 
	C400.831818,134.333160 400.831818,267.666565 400.831818,401.000000 
	C360.140991,401.000000 319.320496,401.000000 278.000000,401.000000 
M83.039612,99.000679 
	C83.039612,99.000679 83.163589,98.800285 83.234726,97.961288 
	C82.548981,97.719978 81.863235,97.478668 81.172882,97.361763 
	C81.172882,97.361763 81.289810,97.319061 81.863815,96.352150 
	C80.899101,95.648834 79.934387,94.945518 78.969673,94.242210 
	C78.786240,94.792526 78.602814,95.342842 78.935074,95.413734 
	C78.004967,94.469383 77.074860,93.525032 77.272720,92.441048 
	C76.542793,91.882484 75.812859,91.323921 75.046402,90.951668 
	C75.046402,90.951668 75.234993,90.973557 75.985207,90.377609 
	C75.396912,89.886681 74.808609,89.395744 74.188393,88.835938 
	C74.188393,88.835938 74.116234,88.812363 74.084038,87.997658 
	C71.386688,85.772484 68.945511,85.819527 66.936043,88.856392 
	C66.936043,88.856392 66.896614,88.756157 66.296974,88.207443 
	C65.825569,88.724037 65.354164,89.240631 64.776810,89.652245 
	C64.776810,89.652245 64.628929,89.671684 63.920227,89.398872 
	C59.392666,91.857864 54.830173,94.255241 50.348717,96.795570 
	C46.830906,98.789635 44.558517,101.541321 44.595600,105.961105 
	C44.696167,117.945747 44.514904,129.932892 44.633656,141.917191 
	C44.680237,146.617981 45.849056,151.028931 50.545296,154.267273 
	C51.040131,154.829926 51.534966,155.392593 52.033497,156.663452 
	C54.010147,158.747070 55.986797,160.830673 58.062828,163.019058 
	C55.208775,165.145645 53.110981,167.111816 50.667789,168.445007 
	C45.636635,171.190353 44.096390,175.337173 44.316181,180.817688 
	C44.607906,188.091873 45.013268,195.440109 44.323475,202.656494 
	C43.310635,213.252518 47.394394,221.257828 55.180321,228.662643 
	C56.883533,230.879929 58.586750,233.097214 60.587753,235.702164 
	C56.847347,237.535172 53.482487,239.264282 50.049213,240.844772 
	C46.415279,242.517639 44.208691,245.163147 44.173790,249.241776 
	C44.078598,260.366119 43.995266,271.491547 44.056446,282.615753 
	C44.082539,287.360748 46.807446,289.854889 51.439079,290.069733 
	C59.566170,290.446747 67.737045,290.510345 75.798607,291.469727 
	C82.247528,292.237122 88.036102,291.376892 93.186668,287.542389 
	C96.742363,284.895203 99.863968,284.859619 103.487770,288.442963 
	C105.301331,289.523834 107.058823,290.716034 108.939613,291.663452 
	C113.493073,293.957275 118.188087,295.245575 123.573418,293.092743 
	C123.573418,293.092743 123.953125,293.147827 124.337914,293.867706 
	C129.558640,294.141876 134.779373,294.416046 140.659012,294.900818 
	C141.116577,294.867218 141.574158,294.833618 142.861908,294.992310 
	C149.910049,292.514191 156.958191,290.036041 163.446289,287.754852 
	C167.049835,290.187592 170.700806,292.652344 174.387924,295.141785 
	C174.387924,295.141785 174.423019,295.167908 174.433548,295.928864 
	C175.622482,296.205139 176.811417,296.481415 178.660767,296.942383 
	C179.113266,296.911621 179.565750,296.880859 180.818497,297.058472 
	C185.545258,297.283752 190.272034,297.509033 195.732010,297.936707 
	C196.487946,297.905731 197.243896,297.874756 198.828568,298.028015 
	C202.132751,298.238983 205.442902,298.650330 208.737839,298.552002 
	C209.888336,298.517639 211.001297,297.226593 212.387253,296.537170 
	C212.387253,296.537170 212.540817,296.329803 212.540817,296.329803 
	C212.540817,296.329803 212.436539,296.094177 212.253235,297.056519 
	C215.663116,295.668671 219.072998,294.280823 223.228241,292.811249 
	C228.962189,289.709351 234.696136,286.607483 240.989426,283.357880 
	C241.458542,283.041992 241.927658,282.726105 243.157272,282.213013 
	C244.046844,281.856567 244.936417,281.500122 246.158432,281.010468 
	C246.432022,285.071777 246.588715,288.835297 246.961441,292.577271 
	C247.459518,297.577576 250.668518,300.909729 255.569107,301.186737 
	C285.419189,302.874054 315.274506,304.468597 345.730804,306.287018 
	C346.138947,306.203369 346.547119,306.119720 347.710968,305.993042 
	C353.588684,302.999756 359.453064,299.979919 365.347565,297.019989 
	C372.456604,293.450104 370.785156,287.175568 370.119354,281.317383 
	C369.539001,276.211029 365.464905,275.246094 361.329010,273.977051 
	C355.871674,272.302551 350.624908,269.941833 344.936035,267.287170 
	C344.255646,266.568573 343.522858,265.892395 342.902466,265.125275 
	C321.916199,239.174149 300.952271,213.204971 279.955139,187.262665 
	C274.928467,181.052124 272.147247,180.632111 264.977173,184.942169 
	C261.520966,186.718613 258.064728,188.495041 254.128922,190.517975 
	C254.128922,181.230789 254.539078,172.718735 253.931747,164.279938 
	C253.680573,160.789963 251.248642,157.456940 249.532578,153.472351 
	C248.732330,152.805008 247.932083,152.137665 247.253281,150.966034 
	C246.850922,150.756958 246.448563,150.547882 246.015549,149.626022 
	C244.602432,147.936737 243.189316,146.247452 241.677841,144.156372 
	C241.294724,143.782547 240.911606,143.408722 240.099365,142.454178 
	C238.781311,141.116898 237.463272,139.779617 236.435455,138.063705 
	C236.132675,137.726288 235.829895,137.388870 235.064667,136.499176 
	C233.683273,134.824036 232.301880,133.148895 230.941650,131.226303 
	C230.941650,131.226303 230.528732,131.048370 230.056580,130.503143 
	C228.686539,128.824600 227.316498,127.146065 225.970886,125.206429 
	C225.885666,125.004494 225.740738,124.942780 225.084290,124.465981 
	C223.689957,122.805000 222.295624,121.144020 220.933533,119.235413 
	C220.933533,119.235413 220.527527,119.044495 220.143387,118.554054 
	C219.565613,117.976212 218.987854,117.398369 218.131546,116.182106 
	C217.151566,115.276924 216.171585,114.371742 215.164139,113.429581 
	C215.164139,113.429581 215.124039,113.406906 215.114624,112.717308 
	C214.770584,112.452332 214.426529,112.187355 214.046036,111.911949 
	C214.046036,111.911949 214.034393,111.875877 213.949036,111.183029 
	C212.713242,109.729202 211.519638,108.233360 210.177368,106.885574 
	C210.040894,106.748550 209.010239,107.502068 208.686447,107.341194 
	C208.036011,106.516159 207.385574,105.691124 207.335876,104.196144 
	C202.037003,94.777565 197.665909,93.738190 188.164612,99.897690 
	C187.458099,100.389389 186.751587,100.881088 185.596756,101.493591 
	C185.225037,101.766800 184.853333,102.040001 183.835556,102.578644 
	C181.039520,104.375832 178.243500,106.173027 175.152649,107.939018 
	C174.932709,108.049751 174.872025,108.217888 174.462433,109.039330 
	C173.330734,116.509003 172.199020,123.978676 171.069229,131.435715 
	C167.886826,127.779076 164.481171,123.865944 161.020416,119.976608 
	C161.020416,119.976608 161.052017,119.925552 160.909866,119.264343 
	C158.296860,116.160484 155.683838,113.056618 153.014191,109.983109 
	C153.014191,109.983109 153.050735,109.930214 152.884293,109.276215 
	C150.216888,106.028770 147.549500,102.781326 144.901855,99.282814 
	C144.815002,99.095978 144.674133,99.035995 144.060303,98.505074 
	C142.758713,97.153099 141.457123,95.801132 140.490311,94.056702 
	C140.175415,93.697868 139.860535,93.339035 139.001221,92.478577 
	C134.481201,88.637001 130.642410,90.605881 126.913910,93.905281 
	C126.913910,93.905281 126.887672,93.943489 126.221390,93.964439 
	C124.801491,94.939209 123.381592,95.913979 121.904007,96.899681 
	C121.904007,96.899681 121.883934,96.954865 121.188919,97.004379 
	C119.776985,97.848038 118.456253,98.944008 116.937767,99.492889 
	C109.204910,102.288048 107.281197,108.153946 107.963005,115.629845 
	C108.231682,118.575836 108.104004,121.560226 108.034874,124.524300 
	C108.032722,124.616684 106.676216,124.677483 105.666908,124.044510 
	C104.851753,123.897026 104.036591,123.749542 103.080536,123.820961 
	C103.080536,123.820961 103.313332,123.937500 104.088165,123.383339 
	C102.439453,121.814964 100.790741,120.246590 99.119301,118.870247 
	C99.119301,118.870247 99.311943,118.853493 99.447365,118.707069 
	C99.447365,118.707069 99.527023,118.524857 99.996948,117.728249 
	C99.096306,117.090660 98.195656,116.453079 97.000778,115.944992 
	C97.000778,115.944992 97.293640,115.805008 97.767189,115.149910 
	C96.877426,114.241058 95.987663,113.332199 95.194893,111.891754 
	C93.924820,111.492065 92.654739,111.092377 92.487106,110.544289 
	C91.896576,107.057877 91.202751,106.382362 88.511185,106.572807 
	C88.511185,106.572807 88.262405,106.504532 89.196472,105.767273 
	C88.194077,104.933083 87.191673,104.098892 86.180069,103.420654 
	C86.180069,103.420654 86.333260,103.389999 87.015938,102.780426 
	C86.073952,101.813759 85.131958,100.847099 84.048904,99.961075 
	C84.048904,99.961075 84.168442,99.851006 84.309418,99.168159 
	C83.932793,99.048775 83.556168,98.929390 83.039612,99.000679 
z"/>
<path fill="#18120F" opacity="1.000000" stroke="none" 
	d="
M123.194679,293.031372 
	C118.188087,295.245575 113.493073,293.957275 108.939613,291.663452 
	C107.058823,290.716034 105.301331,289.523834 103.424835,287.951996 
	C103.694328,287.246246 104.026764,287.031464 104.695312,286.925293 
	C106.455788,287.692078 107.880157,288.350220 109.047432,288.889557 
	C109.047432,275.700104 109.047432,262.843140 109.137360,249.530426 
	C108.863647,242.976242 110.190392,237.016373 105.252106,231.357788 
	C89.633423,213.460938 74.705132,194.961746 59.495014,176.707855 
	C58.540367,175.562180 57.648598,174.014252 56.394318,173.545837 
	C54.231869,172.738281 51.581207,171.886261 49.571907,172.494598 
	C48.227592,172.901596 47.221355,175.714737 46.823837,177.610535 
	C46.393780,179.661514 46.847183,181.897720 46.830532,184.512299 
	C46.733753,188.766739 46.973984,192.582855 46.662479,196.353394 
	C45.717041,207.797150 47.197540,218.409546 55.959896,227.023193 
	C55.551594,227.519470 55.269604,227.763016 54.987614,228.006561 
	C47.394394,221.257828 43.310635,213.252518 44.323475,202.656494 
	C45.013268,195.440109 44.607906,188.091873 44.316181,180.817688 
	C44.096390,175.337173 45.636635,171.190353 50.667789,168.445007 
	C53.110981,167.111816 55.208775,165.145645 58.062828,163.019058 
	C55.986797,160.830673 54.010147,158.747070 52.400246,156.311920 
	C54.336597,157.021469 56.228855,157.803314 57.426151,159.186646 
	C70.166443,173.906433 82.787857,188.729050 95.461601,203.506561 
	C99.712379,208.462952 104.019211,213.371292 108.628349,218.679245 
	C108.628349,204.555984 108.628349,191.264664 108.692665,177.513885 
	C110.084862,168.503250 107.968712,161.169373 101.254631,155.373688 
	C100.286034,154.537582 99.678436,153.283279 99.029190,151.974457 
	C99.434067,151.489807 99.713524,151.253174 100.267899,151.201324 
	C103.063667,154.427155 105.674667,157.399048 108.077530,160.530640 
	C110.086258,163.148560 112.073608,163.815735 114.811348,161.153900 
	C117.598770,160.721466 118.084839,159.748001 116.491348,157.567245 
	C114.494667,154.834732 112.813202,151.871887 111.440247,148.938629 
	C112.180161,148.815948 112.475494,148.763123 112.940689,148.973480 
	C129.948257,169.985168 146.779465,190.738968 163.630157,211.476944 
	C166.382568,214.864319 169.220886,218.181885 172.623535,222.254715 
	C172.623535,208.379608 172.623535,195.646042 172.703064,182.457687 
	C172.796402,178.504028 172.995377,174.991806 172.744232,171.512054 
	C172.622528,169.825668 172.059021,167.869980 171.013290,166.596375 
	C153.687164,145.494888 136.252502,124.482506 118.900253,103.048157 
	C118.995529,102.377861 119.032669,102.109604 119.397766,101.922119 
	C121.773415,104.041443 123.821114,106.079987 126.012543,108.422279 
	C141.510193,127.282387 156.900330,145.809052 172.173798,164.431381 
	C174.158752,166.851547 175.799332,167.678146 178.431793,165.044434 
	C179.771851,164.315475 180.787140,163.662292 181.041565,163.498596 
	C178.195709,158.325760 175.623932,153.651123 173.332581,148.760040 
	C173.870483,148.148087 174.127991,147.752579 174.589386,147.660797 
	C177.268616,152.023285 179.337479,156.409103 182.292664,160.081787 
	C192.746796,173.074112 203.504074,185.822495 214.013565,198.934021 
	C213.584671,199.470398 213.288651,199.736115 212.713348,199.822235 
	C203.647583,189.111694 194.850815,178.589325 186.084869,168.041351 
	C184.635681,166.297516 183.319778,164.448563 180.621994,166.971344 
	C179.034760,167.714264 177.808090,168.386459 176.202301,169.266418 
	C194.510269,191.319473 212.206161,213.056885 230.429108,234.343109 
	C236.317673,241.221527 237.560120,248.583832 236.243408,256.867432 
	C235.538223,256.380005 235.126816,255.965088 234.812683,255.090485 
	C235.161652,246.723953 232.901321,240.278076 227.289429,234.012085 
	C213.794098,218.943878 201.314880,202.966354 188.402542,187.374924 
	C184.169128,182.263153 179.864212,177.210602 175.103973,171.550720 
	C175.103973,177.403625 175.103973,182.203278 175.029999,187.466278 
	C174.951477,199.222015 174.833206,210.516510 175.044403,221.804871 
	C175.083679,223.903778 175.965134,226.365082 177.277328,228.002487 
	C188.277817,241.729477 199.318588,255.430801 210.672623,268.864838 
	C215.744461,274.865814 221.561386,280.237091 227.019226,286.281128 
	C226.954376,287.182831 226.910431,287.697601 226.544312,288.084320 
	C222.976654,285.167908 219.291656,282.751221 216.563293,279.525391 
	C205.916809,266.937866 195.562668,254.102753 185.129410,241.335526 
	C183.709610,239.598083 182.486649,237.626343 179.608566,239.872711 
	C178.146957,240.411560 177.040848,240.882706 175.702377,241.452850 
	C176.641754,242.840897 177.345352,243.880539 177.914566,245.159042 
	C177.489883,245.613541 177.199600,245.829193 176.577499,245.840866 
	C175.981705,245.533005 175.724030,245.389130 175.450485,245.345947 
	C175.348587,245.329865 175.102829,245.549088 175.102798,245.661011 
	C175.101913,250.780594 175.121048,255.900192 175.064117,261.481567 
	C174.935181,271.298431 174.879944,280.653534 174.530670,290.006958 
	C173.844620,290.006348 173.452576,290.007446 172.997070,289.542999 
	C172.862915,278.369476 172.792221,267.661469 172.788422,256.492737 
	C172.862015,254.037598 172.643234,252.011566 172.917419,250.054642 
	C173.762894,244.020096 171.457413,239.518799 167.539810,234.913666 
	C149.780289,214.037460 132.399597,192.839050 114.867401,171.769211 
	C113.792747,170.477722 112.587891,169.294601 111.084785,167.674210 
	C111.084785,173.411270 111.084785,178.217392 111.018280,183.486633 
	C111.022301,194.754303 111.265083,205.561905 111.073196,216.361786 
	C111.002693,220.330078 112.283745,223.221237 114.815254,226.158890 
	C131.191116,245.161957 147.415344,264.295685 163.326080,283.861145 
	C162.734848,284.662384 162.506821,284.989075 162.292175,285.262604 
	C162.305573,285.209442 162.398346,285.257568 162.143951,284.938080 
	C148.303421,268.685913 134.745300,252.729019 121.065269,236.877365 
	C120.194420,235.868271 118.376923,235.676147 116.648148,235.127701 
	C115.192818,235.675339 114.089172,236.199249 112.556183,236.926956 
	C119.916229,245.771484 126.953575,254.111496 133.857880,262.560211 
	C139.921890,269.980682 145.836868,277.522949 151.497223,285.011932 
	C150.749619,285.020325 150.322464,285.028198 149.644104,284.823853 
	C137.204559,270.028320 125.016205,255.444977 112.078590,239.965149 
	C112.078590,245.821014 112.078590,250.371323 112.000427,255.389709 
	C111.963440,266.166351 112.098946,276.475952 111.984772,286.782837 
	C111.953064,289.644775 112.750885,291.031097 115.719604,291.356018 
	C118.242195,291.632141 120.705276,292.452026 123.194679,293.031372 
M56.329544,167.076385 
	C55.607422,167.629471 54.885300,168.182556 54.748711,168.287170 
	C57.435257,171.333389 60.005650,174.119064 62.434597,177.023041 
	C77.890579,195.501785 93.288437,214.029343 108.825859,232.439209 
	C109.646645,233.411728 111.561981,233.460495 113.638901,233.756592 
	C117.651161,231.945358 115.418663,230.166824 113.714699,228.183823 
	C105.160133,218.228226 96.673500,208.214294 88.153687,198.228806 
	C79.410614,187.981674 70.666267,177.735596 61.897964,167.510086 
	C60.493351,165.872025 59.042904,163.695038 56.329544,167.076385 
M115.303513,163.957626 
	C114.363113,164.442749 113.422707,164.927856 112.275146,165.519836 
	C116.812889,170.945892 121.093384,176.038712 125.346313,181.154449 
	C140.672104,199.589478 155.987350,218.033264 171.310547,236.470444 
	C172.819626,238.286240 174.253418,240.462585 177.628479,237.894760 
	C180.011414,237.215820 180.561417,235.870529 178.944321,233.925537 
	C177.146225,231.762863 175.184937,229.734772 173.409088,227.554901 
	C156.251801,206.494019 139.059799,185.460754 122.048737,164.282227 
	C119.775993,161.452698 118.115639,162.105225 115.303513,163.957626 
z"/>
<path fill="#437EC4" opacity="1.000000" stroke="none" 
	d="
M108.628349,177.973343 
	C108.628349,191.264664 108.628349,204.555984 108.628349,218.679245 
	C104.019211,213.371292 99.712379,208.462952 95.461601,203.506561 
	C82.787857,188.729050 70.166443,173.906433 57.426151,159.186646 
	C56.228855,157.803314 54.336597,157.021469 52.398399,155.957809 
	C51.534966,155.392593 51.040131,154.829926 50.326828,153.709167 
	C49.041180,149.551071 47.233585,145.987183 47.055855,142.343811 
	C46.643875,133.898727 47.019794,125.415215 47.356796,116.721619 
	C51.719112,114.032837 54.742302,114.590111 58.646053,119.286858 
	C71.887192,135.217728 84.923004,151.319382 98.185287,167.232422 
	C101.372963,171.057205 105.132050,174.405762 108.628349,177.973343 
z"/>
<path fill="#CD8D2B" opacity="1.000000" stroke="none" 
	d="
M206.735153,104.866089 
	C207.385574,105.691124 208.036011,106.516159 208.639099,107.683533 
	C208.591766,108.025864 208.857056,108.069443 208.944946,108.337723 
	C209.313919,108.849297 209.595016,109.092590 210.050308,109.659225 
	C211.494476,110.613663 212.764435,111.244766 214.034393,111.875877 
	C214.034393,111.875877 214.046036,111.911949 213.754028,112.347931 
	C214.016037,112.991585 214.570038,113.199249 215.124039,113.406906 
	C215.124039,113.406906 215.164139,113.429581 214.748199,113.582458 
	C215.040482,114.886627 215.748734,116.037918 216.573883,117.427246 
	C216.822464,117.783302 216.954117,117.901321 217.157959,118.253410 
	C217.425720,118.768562 217.688568,118.954666 218.414047,119.404167 
	C219.382126,119.523193 219.954819,119.283844 220.527527,119.044495 
	C220.527527,119.044495 220.933533,119.235413 220.488495,119.675583 
	C220.871277,122.874054 221.314133,126.063385 225.536118,125.021286 
	C225.740738,124.942780 225.885666,125.004494 225.512695,125.630371 
	C226.654129,130.723404 227.479065,131.475998 230.528732,131.048370 
	C230.528732,131.048370 230.941650,131.226303 230.498413,131.660950 
	C231.045807,134.667664 231.216309,138.145294 235.527115,137.051468 
	C235.829895,137.388870 236.132675,137.726288 235.868378,138.545990 
	C236.494720,141.080017 236.660278,144.472763 240.528488,143.034912 
	C240.911606,143.408722 241.294724,143.782547 241.344940,144.640839 
	C241.773422,147.748291 242.204056,150.690643 246.046204,150.338806 
	C246.448563,150.547882 246.850922,150.756958 246.768280,151.362671 
	C246.859100,152.637527 247.434906,153.515762 248.165726,154.736328 
	C249.542328,158.078812 251.637054,161.028748 251.813110,164.089066 
	C252.249069,171.666931 251.807419,179.295288 251.364594,186.921570 
	C246.358139,188.283783 242.856461,190.678299 242.937042,196.134766 
	C242.999329,200.353546 243.186020,204.570496 243.164139,208.994675 
	C242.448227,209.827530 241.885605,210.453964 241.010818,211.068573 
	C240.133682,211.420868 239.568710,211.785019 238.779739,212.189758 
	C238.263596,212.365311 238.062286,212.583923 237.741699,212.893524 
	C237.531570,212.900848 237.112457,212.935303 237.035629,212.476044 
	C236.835861,201.397491 236.791336,190.776489 236.560669,180.159531 
	C236.421646,173.761261 234.894394,168.024948 230.494553,162.790070 
	C216.734390,146.418381 203.422363,129.670029 190.258179,112.920700 
	C195.522156,110.115570 200.464630,107.457382 205.735703,104.883804 
	C206.287933,104.934296 206.511551,104.900192 206.735153,104.866089 
z"/>
<path fill="#919191" opacity="1.000000" stroke="none" 
	d="
M346.955261,306.036072 
	C346.547119,306.119720 346.138947,306.203369 345.767700,305.815765 
	C344.704620,304.872711 343.624634,304.057068 342.501099,303.991852 
	C338.701172,303.771179 334.885834,303.816467 330.994629,303.443420 
	C322.357574,293.660187 313.497101,284.449005 305.314117,274.670898 
	C290.828094,257.361115 276.819916,239.652298 262.463440,222.232727 
	C258.627594,217.578476 254.253876,213.367554 250.027023,208.554077 
	C249.640854,206.552612 248.877502,204.857056 249.168213,203.367157 
	C249.769394,200.285995 250.060120,195.753677 252.054428,194.639908 
	C255.618210,192.649551 256.909027,197.486298 258.733002,199.640259 
	C275.047852,218.906738 291.186615,238.322357 307.554199,257.964661 
	C311.623566,262.989594 315.591309,267.684570 319.390381,272.512329 
	C325.055786,279.711639 331.887451,284.412506 341.364563,285.633392 
	C350.626556,286.826599 353.495605,295.875793 347.585510,303.205994 
	C347.041809,303.880371 347.149872,305.080231 346.955261,306.036072 
z"/>
<path fill="#B4461E" opacity="1.000000" stroke="none" 
	d="
M178.107040,165.120178 
	C175.799332,167.678146 174.158752,166.851547 172.173798,164.431381 
	C156.900330,145.809052 141.510193,127.282387 126.376320,108.354492 
	C131.700378,105.138344 136.804398,102.293739 142.356323,99.550613 
	C143.362564,99.469025 143.920914,99.285950 144.479248,99.102875 
	C144.674133,99.035995 144.815002,99.095978 144.643494,99.781738 
	C146.151825,103.089851 147.784851,105.999023 149.766235,108.647591 
	C150.364166,109.446869 151.928879,109.522888 153.050735,109.930214 
	C153.050735,109.930214 153.014191,109.983109 152.721893,110.249672 
	C153.885040,112.811684 155.142120,115.273285 156.872147,117.338730 
	C157.871063,118.531334 159.633316,119.084557 161.052017,119.925552 
	C161.052017,119.925552 161.020416,119.976608 160.727234,120.243446 
	C162.901031,124.143921 165.367996,127.777550 167.867554,131.841110 
	C167.927185,144.269516 167.971817,156.262527 178.107040,165.120178 
z"/>
<path fill="#285994" opacity="1.000000" stroke="none" 
	d="
M114.504028,161.174210 
	C112.073608,163.815735 110.086258,163.148560 108.077530,160.530640 
	C105.674667,157.399048 103.063667,154.427155 100.129456,150.894562 
	C94.954117,144.630142 90.256508,138.802353 85.399078,133.110962 
	C83.403404,130.772644 81.063286,128.728287 78.660202,126.456635 
	C78.376083,126.216820 78.239418,126.058212 78.261894,125.926834 
	C78.311577,125.636452 78.441345,125.359787 78.331543,124.758095 
	C76.732483,123.645744 75.340317,122.852821 73.972672,122.033287 
	C73.997192,122.006668 73.937805,122.047356 74.188881,121.716156 
	C72.771477,119.615211 71.103004,117.845467 69.226547,116.229141 
	C68.651573,116.072823 68.284576,115.763084 68.291878,115.337006 
	C66.671524,111.951721 64.676865,108.682777 63.050858,105.274185 
	C68.711433,102.378914 74.003349,99.623306 79.624954,96.970581 
	C80.399689,97.155327 80.844749,97.237190 81.289810,97.319061 
	C81.289810,97.319061 81.172882,97.361763 81.186882,97.716164 
	C81.855118,98.313805 82.509354,98.557045 83.163589,98.800285 
	C83.163589,98.800285 83.039612,99.000679 83.005142,99.256172 
	C83.369926,99.624779 83.769180,99.737892 84.168442,99.851006 
	C84.168442,99.851006 84.048904,99.961075 83.902527,100.273010 
	C84.615196,101.519958 85.474228,102.454979 86.333260,103.389999 
	C86.333260,103.389999 86.180069,103.420654 86.184357,103.748077 
	C86.879898,104.885178 87.571152,105.694855 88.262405,106.504532 
	C88.262405,106.504532 88.511185,106.572807 88.683937,107.014893 
	C89.699348,108.535545 90.542007,109.614113 91.384666,110.692688 
	C92.654739,111.092377 93.924820,111.492065 94.934692,112.541718 
	C95.547531,114.062798 96.420586,114.933907 97.293640,115.805008 
	C97.293640,115.805008 97.000778,115.944992 96.971497,116.164772 
	C97.261688,116.941750 97.581169,117.498940 98.062912,118.299149 
	C98.587433,118.645935 98.949692,118.749718 99.311943,118.853493 
	C99.311943,118.853493 99.119301,118.870247 99.129631,119.132645 
	C100.531082,120.909195 101.922203,122.423347 103.313332,123.937500 
	C103.313332,123.937500 103.080536,123.820961 103.189713,124.163559 
	C103.537888,129.618134 103.600090,134.745926 104.055824,139.838516 
	C104.807594,148.239319 106.563210,156.248810 114.504028,161.174210 
z"/>
<path fill="#EEBA6C" opacity="1.000000" stroke="none" 
	d="
M174.970612,108.443420 
	C174.872025,108.217888 174.932709,108.049751 175.468536,108.456146 
	C178.032303,108.396965 180.280182,107.820656 182.516281,107.208862 
	C182.504517,107.173386 182.517227,107.245316 182.248840,107.686676 
	C184.327576,110.666573 186.807495,113.095924 188.999893,115.761726 
	C201.318649,130.740417 213.128220,146.168182 226.020172,160.632874 
	C232.837357,168.281723 235.019608,176.467010 234.020050,185.932617 
	C231.715088,183.582794 229.658279,181.439133 227.768341,179.157257 
	C213.654053,162.116028 199.624359,145.004425 185.453400,128.010559 
	C180.452499,122.013466 179.058090,122.127060 174.279190,127.463760 
	C174.392151,122.337723 174.582520,117.662025 174.877777,112.750610 
	C174.975357,112.343048 174.968033,112.171204 175.269028,111.530006 
	C175.375092,110.188248 175.172852,109.315834 174.970612,108.443420 
z"/>
<path fill="#DE6133" opacity="1.000000" stroke="none" 
	d="
M123.384048,293.062073 
	C120.705276,292.452026 118.242195,291.632141 115.719604,291.356018 
	C112.750885,291.031097 111.953064,289.644775 111.984772,286.782837 
	C112.098946,276.475952 111.963440,266.166351 112.287964,255.565475 
	C123.083565,267.807648 133.513474,280.342102 143.988098,292.971008 
	C144.032806,293.065430 144.019455,293.273926 143.628784,293.160278 
	C142.155411,293.055206 141.072739,293.063782 139.529510,292.989563 
	C134.030365,292.987091 128.991745,293.067444 123.953125,293.147827 
	C123.953125,293.147827 123.573418,293.092743 123.384048,293.062073 
z"/>
<path fill="#12171C" opacity="1.000000" stroke="none" 
	d="
M55.083965,228.334595 
	C55.269604,227.763016 55.551594,227.519470 56.243324,227.213165 
	C64.755920,237.421097 72.808296,247.732117 80.976227,257.950806 
	C88.707481,267.623169 96.559998,277.198578 104.359192,286.816650 
	C104.026764,287.031464 103.694328,287.246246 103.191254,287.706024 
	C99.863968,284.859619 96.742363,284.895203 93.186668,287.542389 
	C88.036102,291.376892 82.247528,292.237122 75.798607,291.469727 
	C67.737045,290.510345 59.566170,290.446747 51.439079,290.069733 
	C46.807446,289.854889 44.082539,287.360748 44.056446,282.615753 
	C43.995266,271.491547 44.078598,260.366119 44.173790,249.241776 
	C44.208691,245.163147 46.415279,242.517639 50.049213,240.844772 
	C53.482487,239.264282 56.847347,237.535172 60.587753,235.702164 
	C58.586750,233.097214 56.883533,230.879929 55.083965,228.334595 
M57.255390,240.013947 
	C54.990662,240.716003 55.626923,241.191071 56.891697,242.834335 
	C67.657982,256.822754 78.170792,271.006073 88.867622,285.048645 
	C89.352585,285.685303 90.873039,285.533173 92.552315,285.580963 
	C94.031334,284.610504 95.510353,283.640076 97.192894,282.536072 
	C96.487625,281.473358 96.090820,280.773163 95.598328,280.148407 
	C85.262207,267.036224 74.807999,254.014832 64.651207,240.765396 
	C62.317879,237.721588 60.497822,237.440109 57.255390,240.013947 
M78.859718,289.387726 
	C81.127533,288.867188 83.395340,288.346680 85.663155,287.826141 
	C85.039093,285.590820 84.980339,282.943054 83.699181,281.187164 
	C75.406235,269.821106 66.860565,258.639008 58.354282,247.429596 
	C57.466850,246.260132 56.431900,245.105484 55.230888,244.288803 
	C51.179024,241.533585 47.112850,243.384262 46.662445,248.261917 
	C46.421032,250.876328 46.725803,253.541199 46.601528,257.028046 
	C46.458603,265.157501 46.281200,273.286530 46.189152,281.416565 
	C46.150505,284.829956 46.910931,287.835449 51.160107,288.029266 
	C60.104141,288.437317 69.051216,288.778717 78.859718,289.387726 
z"/>
<path fill="#EDBA6C" opacity="1.000000" stroke="none" 
	d="
M175.137833,261.019775 
	C175.121048,255.900192 175.101913,250.780594 175.102798,245.661011 
	C175.102829,245.549088 175.348587,245.329865 175.450485,245.345947 
	C175.724030,245.389130 175.981705,245.533005 176.702255,246.155304 
	C180.450104,250.629318 183.753906,254.574554 187.030243,258.542480 
	C196.004135,269.410522 204.966446,280.288116 213.879471,291.531982 
	C213.362579,293.299438 212.899567,294.696808 212.436539,296.094177 
	C212.436539,296.094177 212.540817,296.329803 212.540817,296.329803 
	C212.540817,296.329803 212.387253,296.537170 211.834351,296.586670 
	C208.850647,296.449158 206.419876,296.262085 203.842468,295.771515 
	C194.176498,283.985260 184.657166,272.502502 175.137833,261.019775 
z"/>
<path fill="#EBA740" opacity="1.000000" stroke="none" 
	d="
M175.064117,261.481567 
	C184.657166,272.502502 194.176498,283.985260 203.430176,295.844452 
	C201.776016,296.211487 200.387512,296.202057 198.747589,296.126282 
	C198.326294,296.094360 198.156403,296.128723 197.618439,296.084717 
	C196.499283,296.031006 195.748230,296.055664 194.552643,295.989441 
	C189.732162,295.664703 185.356201,295.430847 180.612335,295.116272 
	C179.494461,295.057465 178.744476,295.079315 177.519699,294.985107 
	C176.170929,294.968658 175.296982,295.068268 174.423019,295.167908 
	C174.423019,295.167908 174.387924,295.141785 174.715134,294.718384 
	C174.408981,293.709656 173.775604,293.124268 173.105347,292.535156 
	C173.068451,292.531433 173.004868,292.569611 173.401886,292.862427 
	C174.140839,292.106384 174.482773,291.057526 174.824707,290.008636 
	C174.879944,280.653534 174.935181,271.298431 175.064117,261.481567 
z"/>
<path fill="#131313" opacity="1.000000" stroke="none" 
	d="
M307.377167,257.694092 
	C291.186615,238.322357 275.047852,218.906738 258.733002,199.640259 
	C256.909027,197.486298 255.618210,192.649551 252.054428,194.639908 
	C250.060120,195.753677 249.769394,200.285995 249.168213,203.367157 
	C248.877502,204.857056 249.640854,206.552612 249.906586,209.014099 
	C249.553665,223.915543 249.221100,237.957977 248.583954,252.000183 
	C247.872955,251.998657 247.466537,251.997345 247.013092,251.529633 
	C246.541580,240.347763 248.844147,229.384201 244.393829,219.407776 
	C245.397446,220.336731 246.062103,220.923767 247.309906,222.025848 
	C247.309906,217.451477 247.309906,213.611572 247.309906,209.413788 
	C245.458984,210.351273 243.760910,211.211365 241.897705,211.808868 
	C241.596054,211.391006 241.459518,211.235703 241.322983,211.080399 
	C241.885605,210.453964 242.448227,209.827530 243.563477,208.895874 
	C245.112823,206.764267 246.388855,205.031952 247.043015,203.090134 
	C248.114822,199.908737 248.731979,196.577057 249.638138,193.335938 
	C250.244415,191.167374 251.019073,189.045898 251.718399,186.903351 
	C251.807419,179.295288 252.249069,171.666931 251.813110,164.089066 
	C251.637054,161.028748 249.542328,158.078812 248.614197,154.641724 
	C249.207932,154.154053 249.508224,154.103302 249.808502,154.052536 
	C251.248642,157.456940 253.680573,160.789963 253.931747,164.279938 
	C254.539078,172.718735 254.128922,181.230789 254.128922,190.517975 
	C258.064728,188.495041 261.520966,186.718613 265.588074,185.026657 
	C266.462250,185.391693 266.725555,185.672226 266.730896,186.177063 
	C262.999481,188.325012 259.526062,190.248672 255.220947,192.632950 
	C258.419830,195.511475 261.181305,197.996353 263.908539,200.819427 
	C264.118713,201.765152 264.228424,202.484863 264.627289,202.963760 
	C273.561096,213.690338 282.586761,224.340912 291.464905,235.113113 
	C297.263184,242.148376 302.856110,249.352875 308.243164,256.778076 
	C307.755920,257.281097 307.566528,257.487610 307.377167,257.694092 
z"/>
<path fill="#131313" opacity="1.000000" stroke="none" 
	d="
M347.333130,306.014557 
	C347.149872,305.080231 347.041809,303.880371 347.585510,303.205994 
	C353.495605,295.875793 350.626556,286.826599 341.364563,285.633392 
	C331.887451,284.412506 325.055786,279.711639 319.390381,272.512329 
	C315.591309,267.684570 311.623566,262.989594 307.554199,257.964661 
	C307.566528,257.487610 307.755920,257.281097 308.497681,256.975433 
	C310.738647,258.697083 312.438995,260.507111 314.113586,262.340668 
	C319.111328,267.812805 323.374725,274.343719 329.316711,278.444275 
	C334.188843,281.806519 341.074463,283.668640 347.028595,283.580048 
	C351.490997,283.513580 355.891479,279.288574 359.539551,277.333160 
	C354.303741,274.547028 349.142303,271.800476 344.141174,268.800079 
	C344.630188,268.322876 344.958893,268.099518 345.287598,267.876129 
	C350.624908,269.941833 355.871674,272.302551 361.329010,273.977051 
	C365.464905,275.246094 369.539001,276.211029 370.119354,281.317383 
	C370.785156,287.175568 372.456604,293.450104 365.347565,297.019989 
	C359.453064,299.979919 353.588684,302.999756 347.333130,306.014557 
M355.336517,282.794220 
	C353.329346,283.861877 351.322205,284.929565 350.263153,285.492889 
	C351.421692,290.954712 352.417267,295.648224 353.475586,300.637482 
	C355.280487,299.699188 357.651367,298.317108 360.141174,297.200073 
	C367.976288,293.684937 369.976166,289.834961 367.902557,281.545471 
	C367.098450,278.330994 365.216125,277.052216 362.017639,278.958588 
	C360.021667,280.148224 357.988098,281.274719 355.336517,282.794220 
z"/>
<path fill="#131313" opacity="1.000000" stroke="none" 
	d="
M331.076385,303.760132 
	C334.885834,303.816467 338.701172,303.771179 342.501099,303.991852 
	C343.624634,304.057068 344.704620,304.872711 345.466309,305.719299 
	C315.274506,304.468597 285.419189,302.874054 255.569107,301.186737 
	C250.668518,300.909729 247.459518,297.577576 246.961441,292.577271 
	C246.588715,288.835297 246.432022,285.071777 246.158432,281.010468 
	C244.936417,281.500122 244.046844,281.856567 242.489380,282.017670 
	C241.628937,281.627136 241.436386,281.431946 241.420471,281.090332 
	C241.876709,280.793854 242.084259,280.575378 242.582428,280.199646 
	C245.781219,279.383759 246.744904,277.536743 246.734116,274.658173 
	C246.707031,267.440430 246.917953,260.221802 247.339172,253.002060 
	C248.051773,253.000198 248.458618,252.999771 248.907684,253.466248 
	C248.914963,265.887909 248.724945,277.845001 248.906464,289.796478 
	C249.006409,296.377808 251.503357,298.738739 257.414337,299.108734 
	C281.969208,300.645782 306.522491,302.207458 331.076385,303.760132 
z"/>
<path fill="#171717" opacity="1.000000" stroke="none" 
	d="
M345.111816,267.581665 
	C344.958893,268.099518 344.630188,268.322876 343.846985,268.638489 
	C341.878876,267.192749 340.231995,265.763702 338.871704,264.100311 
	C319.243713,240.098938 299.654236,216.066071 280.012695,191.687408 
	C275.389587,184.142471 273.991364,183.562836 266.988861,185.952774 
	C266.725555,185.672226 266.462250,185.391693 265.936737,184.983017 
	C272.147247,180.632111 274.928467,181.052124 279.955139,187.262665 
	C300.952271,213.204971 321.916199,239.174149 342.902466,265.125275 
	C343.522858,265.892395 344.255646,266.568573 345.111816,267.581665 
z"/>
<path fill="#0F151C" opacity="1.000000" stroke="none" 
	d="
M62.682201,105.413834 
	C64.676865,108.682777 66.671524,111.951721 68.054390,115.071625 
	C65.028236,111.993034 62.852417,108.812607 60.121437,106.216080 
	C58.064655,104.260559 55.473309,102.399506 52.800625,101.676201 
	C49.342724,100.740387 46.625515,102.139915 46.856972,106.562790 
	C47.037827,110.018646 47.010887,113.485382 47.076283,116.947281 
	C47.019794,125.415215 46.643875,133.898727 47.055855,142.343811 
	C47.233585,145.987183 49.041180,149.551071 50.102795,153.537903 
	C45.849056,151.028931 44.680237,146.617981 44.633656,141.917191 
	C44.514904,129.932892 44.696167,117.945747 44.595600,105.961105 
	C44.558517,101.541321 46.830906,98.789635 50.348717,96.795570 
	C54.830173,94.255241 59.392666,91.857864 64.523682,89.841721 
	C60.879059,93.036629 56.630989,95.788696 52.980438,98.153664 
	C56.180859,100.548645 59.431530,102.981239 62.682201,105.413834 
z"/>
<path fill="#5A7FAC" opacity="1.000000" stroke="none" 
	d="
M63.050858,105.274185 
	C59.431530,102.981239 56.180859,100.548645 52.980438,98.153664 
	C56.630989,95.788696 60.879059,93.036629 64.878029,89.978119 
	C64.628929,89.671684 64.776810,89.652245 65.138046,89.953331 
	C65.965057,89.754997 66.430832,89.255577 66.896614,88.756157 
	C66.896614,88.756157 66.936043,88.856392 67.331894,88.987549 
	C69.857239,89.016586 71.986732,88.914474 74.116234,88.812363 
	C74.116234,88.812363 74.188393,88.835938 73.884155,89.115601 
	C74.131607,89.921364 74.683304,90.447456 75.234993,90.973557 
	C75.234993,90.973557 75.046402,90.951668 75.117172,91.219223 
	C75.506874,91.851410 75.825813,92.216049 76.144753,92.580681 
	C77.074860,93.525032 78.004967,94.469383 78.935112,95.862778 
	C79.055191,96.497116 79.175232,96.682404 79.295273,96.867691 
	C74.003349,99.623306 68.711433,102.378914 63.050858,105.274185 
z"/>
<path fill="#C27152" opacity="1.000000" stroke="none" 
	d="
M141.908401,99.449127 
	C136.804398,102.293739 131.700378,105.138344 126.232590,108.050743 
	C123.821114,106.079987 121.773415,104.041443 119.444748,101.567307 
	C120.070496,99.739441 120.977219,98.347153 121.883934,96.954865 
	C121.883934,96.954865 121.904007,96.899681 122.150543,97.329651 
	C123.893951,96.487579 125.390816,95.215538 126.887672,93.943497 
	C126.887672,93.943489 126.913910,93.905281 127.185715,94.336975 
	C131.486908,94.172516 135.516281,93.576363 139.545654,92.980202 
	C139.860535,93.339035 140.175415,93.697868 139.927734,94.493034 
	C140.212906,96.435951 141.060654,97.942535 141.908401,99.449127 
z"/>
<path fill="#1D426F" opacity="1.000000" stroke="none" 
	d="
M114.811348,161.153900 
	C106.563210,156.248810 104.807594,148.239319 104.055824,139.838516 
	C103.600090,134.745926 103.537888,129.618134 103.260162,124.054108 
	C104.036591,123.749542 104.851753,123.897026 105.738159,124.822365 
	C106.576324,129.992615 107.208679,134.414200 108.152901,138.768143 
	C108.902481,142.224533 110.033829,145.598114 110.995674,149.008469 
	C112.813202,151.871887 114.494667,154.834732 116.491348,157.567245 
	C118.084839,159.748001 117.598770,160.721466 114.811348,161.153900 
z"/>
<path fill="#141210" opacity="1.000000" stroke="none" 
	d="
M111.440247,148.938629 
	C110.033829,145.598114 108.902481,142.224533 108.152901,138.768143 
	C107.208679,134.414200 106.576324,129.992615 105.880264,125.176613 
	C106.676216,124.677483 108.032722,124.616684 108.034874,124.524300 
	C108.104004,121.560226 108.231682,118.575836 107.963005,115.629845 
	C107.281197,108.153946 109.204910,102.288048 116.937767,99.492889 
	C118.456253,98.944008 119.776985,97.848038 121.536423,96.979622 
	C120.977219,98.347153 120.070496,99.739441 119.116798,101.486534 
	C119.032669,102.109604 118.995529,102.377861 118.516205,102.965393 
	C112.778236,103.302094 110.576813,105.147644 110.153000,110.487282 
	C109.905701,113.602936 110.206367,116.762093 110.200760,120.372711 
	C110.686226,130.163879 108.738335,139.719269 112.770821,148.710297 
	C112.475494,148.763123 112.180161,148.815948 111.440247,148.938629 
z"/>
<path fill="#131313" opacity="1.000000" stroke="none" 
	d="
M173.142242,292.538910 
	C173.775604,293.124268 174.408981,293.709656 174.697052,294.706055 
	C170.700806,292.652344 167.049835,290.187592 163.446289,287.754852 
	C156.958191,290.036041 149.910049,292.514191 142.610489,294.703033 
	C142.912537,294.033813 143.465988,293.653870 144.019455,293.273926 
	C144.019455,293.273926 144.032806,293.065430 144.379303,293.052887 
	C150.101852,292.731415 150.904648,289.468903 149.895294,285.036041 
	C150.322464,285.028198 150.749619,285.020325 151.623657,285.342834 
	C152.446716,286.993774 152.822906,288.314301 153.322098,290.066650 
	C154.895828,288.946320 156.055908,288.120483 157.609833,287.175537 
	C159.522888,286.381226 161.042130,285.706055 162.545059,285.082092 
	C162.528748,285.133270 162.278793,285.315765 162.278793,285.315765 
	C162.506821,284.989075 162.734848,284.662384 163.572235,284.079468 
	C167.168488,286.728455 170.155365,289.633698 173.142242,292.538910 
z"/>
<path fill="#141210" opacity="1.000000" stroke="none" 
	d="
M174.772873,112.986328 
	C174.582520,117.662025 174.392151,122.337723 174.190704,128.022141 
	C174.131775,132.171127 174.083954,135.311371 173.714081,137.934418 
	C171.539673,135.415192 169.687332,133.413193 167.834976,131.411179 
	C165.367996,127.777550 162.901031,124.143921 160.754791,120.231552 
	C164.481171,123.865944 167.886826,127.779076 171.069229,131.435715 
	C172.199020,123.978676 173.330734,116.509003 174.716522,108.741379 
	C175.172852,109.315834 175.375092,110.188248 175.117828,111.607361 
	C174.591873,112.244255 174.451675,112.359901 174.472443,112.419952 
	C174.541397,112.619522 174.668228,112.799095 174.772873,112.986328 
z"/>
<path fill="#131313" opacity="1.000000" stroke="none" 
	d="
M226.866455,288.212341 
	C226.910431,287.697601 226.954376,287.182831 227.426422,286.298401 
	C234.529785,285.842926 234.887985,285.416229 235.103333,279.181488 
	C235.157562,277.611237 236.011703,276.068634 236.708710,275.214722 
	C236.991714,277.563995 236.876282,279.254547 237.235428,280.837402 
	C237.367004,281.417358 238.623276,281.742126 239.630005,282.515808 
	C240.072372,283.067383 240.251236,283.286499 240.430084,283.505615 
	C234.696136,286.607483 228.962189,289.709351 222.651733,292.496826 
	C221.929901,291.951141 221.784607,291.719940 221.901093,291.310242 
	C223.730728,290.158630 225.298599,289.185486 226.866455,288.212341 
z"/>
<path fill="#141210" opacity="1.000000" stroke="none" 
	d="
M207.035522,104.531113 
	C206.511551,104.900192 206.287933,104.934296 205.594238,104.567627 
	C198.197052,97.079926 198.197052,97.079926 189.676086,100.705917 
	C189.194061,100.197792 189.001526,99.994270 188.809006,99.790741 
	C197.665909,93.738190 202.037003,94.777565 207.035522,104.531113 
z"/>
<path fill="#131313" opacity="1.000000" stroke="none" 
	d="
M180.980255,295.196991 
	C185.356201,295.430847 189.732162,295.664703 194.553955,296.264343 
	C194.999466,296.998199 194.999130,297.366241 194.998810,297.734314 
	C190.272034,297.509033 185.545258,297.283752 180.511703,296.732483 
	C180.463364,296.003357 180.721802,295.600159 180.980255,295.196991 
z"/>
<path fill="#131313" opacity="1.000000" stroke="none" 
	d="
M198.999023,296.192627 
	C200.387512,296.202057 201.776016,296.211487 203.576797,296.147980 
	C206.419876,296.262085 208.850647,296.449158 211.706421,296.572815 
	C211.001297,297.226593 209.888336,298.517639 208.737839,298.552002 
	C205.442902,298.650330 202.132751,298.238983 198.414520,297.724426 
	C198.000488,297.420837 198.002441,296.997772 198.202515,296.909241 
	C198.660889,296.667877 198.859711,296.458527 198.999023,296.192627 
z"/>
<path fill="#131313" opacity="1.000000" stroke="none" 
	d="
M212.344879,296.575348 
	C212.899567,294.696808 213.362579,293.299438 213.937622,291.222351 
	C214.362732,290.030640 214.675842,289.518646 215.213333,289.287476 
	C215.738663,290.959961 216.039642,292.351624 216.404175,294.037262 
	C218.047714,293.155487 219.472427,292.391144 221.086151,291.610962 
	C221.275177,291.595123 221.639313,291.488708 221.639313,291.488708 
	C221.784607,291.719940 221.929901,291.951141 222.279053,292.537659 
	C219.072998,294.280823 215.663116,295.668671 212.344879,296.575348 
z"/>
<path fill="#141210" opacity="1.000000" stroke="none" 
	d="
M139.273438,92.729385 
	C135.516281,93.576363 131.486908,94.172516 127.207687,94.329597 
	C130.642410,90.605881 134.481201,88.637001 139.273438,92.729385 
z"/>
<path fill="#141210" opacity="1.000000" stroke="none" 
	d="
M160.980942,119.594948 
	C159.633316,119.084557 157.871063,118.531334 156.872147,117.338730 
	C155.142120,115.273285 153.885040,112.811684 152.750214,110.234497 
	C155.683838,113.056618 158.296860,116.160484 160.980942,119.594948 
z"/>
<path fill="#131313" opacity="1.000000" stroke="none" 
	d="
M124.145523,293.507751 
	C128.991745,293.067444 134.030365,292.987091 139.532745,293.259155 
	C139.997726,293.971161 139.998917,294.330688 140.000107,294.690216 
	C134.779373,294.416046 129.558640,294.141876 124.145523,293.507751 
z"/>
<path fill="#141210" opacity="1.000000" stroke="none" 
	d="
M152.967514,109.603210 
	C151.928879,109.522888 150.364166,109.446869 149.766235,108.647591 
	C147.784851,105.999023 146.151825,103.089851 144.633621,99.907272 
	C147.549500,102.781326 150.216888,106.028770 152.967514,109.603210 
z"/>
<path fill="#141210" opacity="1.000000" stroke="none" 
	d="
M182.528046,107.244339 
	C180.280182,107.820656 178.032303,108.396965 175.615952,108.471741 
	C178.243500,106.173027 181.039520,104.375832 184.460175,102.797943 
	C185.294174,103.244522 185.503555,103.471802 185.425903,103.938507 
	C184.268600,105.200058 183.398315,106.222198 182.528046,107.244339 
z"/>
<path fill="#131313" opacity="1.000000" stroke="none" 
	d="
M225.310211,124.743637 
	C221.314133,126.063385 220.871277,122.874054 220.472382,119.799393 
	C222.295624,121.144020 223.689957,122.805000 225.310211,124.743637 
z"/>
<path fill="#0F151C" opacity="1.000000" stroke="none" 
	d="
M74.100136,88.405014 
	C71.986732,88.914474 69.857239,89.016586 67.282227,88.966713 
	C68.945511,85.819527 71.386688,85.772484 74.100136,88.405014 
z"/>
<path fill="#131313" opacity="1.000000" stroke="none" 
	d="
M246.030884,149.982422 
	C242.204056,150.690643 241.773422,147.748291 241.394119,144.841736 
	C243.189316,146.247452 244.602432,147.936737 246.030884,149.982422 
z"/>
<path fill="#131313" opacity="1.000000" stroke="none" 
	d="
M235.295898,136.775330 
	C231.216309,138.145294 231.045807,134.667664 230.487823,131.784668 
	C232.301880,133.148895 233.683273,134.824036 235.295898,136.775330 
z"/>
<path fill="#131313" opacity="1.000000" stroke="none" 
	d="
M230.292664,130.775757 
	C227.479065,131.475998 226.654129,130.723404 225.500473,125.760918 
	C227.316498,127.146065 228.686539,128.824600 230.292664,130.775757 
z"/>
<path fill="#141210" opacity="1.000000" stroke="none" 
	d="
M142.356323,99.550606 
	C141.060654,97.942535 140.212906,96.435951 139.760345,94.689270 
	C141.457123,95.801132 142.758713,97.153099 144.269775,98.803970 
	C143.920914,99.285950 143.362564,99.469025 142.356323,99.550606 
z"/>
<path fill="#0F151C" opacity="1.000000" stroke="none" 
	d="
M103.700745,123.660416 
	C101.922203,122.423347 100.531082,120.909195 99.140991,119.036629 
	C100.790741,120.246590 102.439453,121.814964 103.700745,123.660416 
z"/>
<path fill="#131313" opacity="1.000000" stroke="none" 
	d="
M240.313934,142.744537 
	C236.660278,144.472763 236.494720,141.080017 235.723267,138.735291 
	C237.463272,139.779617 238.781311,141.116898 240.313934,142.744537 
z"/>
<path fill="#141210" opacity="1.000000" stroke="none" 
	d="
M213.991714,111.529449 
	C212.764435,111.244766 211.494476,110.613663 209.975281,109.381989 
	C209.436401,108.544090 209.146729,108.306763 208.857056,108.069443 
	C208.857056,108.069443 208.591766,108.025864 208.493149,107.934097 
	C209.010239,107.502068 210.040894,106.748550 210.177368,106.885574 
	C211.519638,108.233360 212.713242,109.729202 213.991714,111.529449 
z"/>
<path fill="#141210" opacity="1.000000" stroke="none" 
	d="
M126.554535,93.953964 
	C125.390816,95.215538 123.893951,96.487579 122.179390,97.324188 
	C123.381592,95.913979 124.801491,94.939209 126.554535,93.953964 
z"/>
<path fill="#141210" opacity="1.000000" stroke="none" 
	d="
M216.456970,117.189209 
	C215.748734,116.037918 215.040482,114.886627 214.761932,113.600952 
	C216.171585,114.371742 217.151566,115.276924 217.782684,116.594276 
	C217.108215,117.067375 216.782593,117.128296 216.456970,117.189209 
z"/>
<path fill="#0F151C" opacity="1.000000" stroke="none" 
	d="
M91.935883,110.618484 
	C90.542007,109.614113 89.699348,108.535545 88.700439,107.081207 
	C91.202751,106.382362 91.896576,107.057877 91.935883,110.618484 
z"/>
<path fill="#18120F" opacity="1.000000" stroke="none" 
	d="
M198.002441,296.997772 
	C198.002441,296.997772 198.000488,297.420837 198.000153,297.632294 
	C197.243896,297.874756 196.487946,297.905731 195.365417,297.835510 
	C194.999130,297.366241 194.999466,296.998199 194.998474,296.355225 
	C195.748230,296.055664 196.499283,296.031006 197.623383,296.293396 
	C197.996429,296.580414 198.002441,296.997772 198.002441,296.997772 
z"/>
<path fill="#0F151C" opacity="1.000000" stroke="none" 
	d="
M86.674599,103.085213 
	C85.474228,102.454979 84.615196,101.519958 83.973068,100.232681 
	C85.131958,100.847099 86.073952,101.813759 86.674599,103.085213 
z"/>
<path fill="#18120F" opacity="1.000000" stroke="none" 
	d="
M140.329559,294.795532 
	C139.998917,294.330688 139.997726,293.971161 139.993286,293.342010 
	C141.072739,293.063782 142.155411,293.055206 143.628784,293.160278 
	C143.465988,293.653870 142.912537,294.033813 142.195404,294.606903 
	C141.574158,294.833618 141.116577,294.867218 140.329559,294.795532 
z"/>
<path fill="#131313" opacity="1.000000" stroke="none" 
	d="
M174.428284,295.548401 
	C175.296982,295.068268 176.170929,294.968658 177.521667,295.261169 
	C177.999069,296.021423 177.999710,296.389557 178.000351,296.757690 
	C176.811417,296.481415 175.622482,296.205139 174.428284,295.548401 
z"/>
<path fill="#0F151C" opacity="1.000000" stroke="none" 
	d="
M97.530411,115.477463 
	C96.420586,114.933907 95.547531,114.062798 94.886192,112.807518 
	C95.987663,113.332199 96.877426,114.241058 97.530411,115.477463 
z"/>
<path fill="#131313" opacity="1.000000" stroke="none" 
	d="
M216.573883,117.427246 
	C216.782593,117.128296 217.108215,117.067375 217.921967,116.913483 
	C218.987854,117.398369 219.565613,117.976212 220.335449,118.799271 
	C219.954819,119.283844 219.382126,119.523193 218.307861,119.191147 
	C217.624527,118.349518 217.384354,118.149384 217.085770,118.019348 
	C216.954117,117.901321 216.822464,117.783302 216.573883,117.427246 
z"/>
<path fill="#18120F" opacity="1.000000" stroke="none" 
	d="
M178.330566,296.850037 
	C177.999710,296.389557 177.999069,296.021423 177.996460,295.377228 
	C178.744476,295.079315 179.494461,295.057465 180.612335,295.116272 
	C180.721802,295.600159 180.463364,296.003357 180.111572,296.628296 
	C179.565750,296.880859 179.113266,296.911621 178.330566,296.850037 
z"/>
<path fill="#0F151C" opacity="1.000000" stroke="none" 
	d="
M79.624954,96.970581 
	C79.175232,96.682404 79.055191,96.497116 78.677269,96.102493 
	C78.602814,95.342842 78.786240,94.792526 78.969666,94.242210 
	C79.934387,94.945518 80.899101,95.648834 81.576813,96.835602 
	C80.844749,97.237190 80.399689,97.155327 79.624954,96.970581 
z"/>
<path fill="#141210" opacity="1.000000" stroke="none" 
	d="
M249.670532,153.762451 
	C249.508224,154.103302 249.207932,154.154053 248.459167,154.299408 
	C247.434906,153.515762 246.859100,152.637527 246.707565,151.614807 
	C247.932083,152.137665 248.732330,152.805008 249.670532,153.762451 
z"/>
<path fill="#141210" opacity="1.000000" stroke="none" 
	d="
M186.045074,101.372787 
	C186.751587,100.881088 187.458099,100.389389 188.486816,99.844215 
	C189.001526,99.994270 189.194061,100.197792 189.477905,100.924713 
	C188.895691,101.849571 188.222168,102.251022 187.185715,102.317307 
	C186.563568,101.779030 186.304321,101.575912 186.045074,101.372787 
z"/>
<path fill="#0F151C" opacity="1.000000" stroke="none" 
	d="
M88.729439,106.135902 
	C87.571152,105.694855 86.879898,104.885178 86.188965,103.670097 
	C87.191673,104.098892 88.194077,104.933083 88.729439,106.135902 
z"/>
<path fill="#0F151C" opacity="1.000000" stroke="none" 
	d="
M97.900650,118.056137 
	C97.581169,117.498940 97.261688,116.941750 97.118607,116.100021 
	C98.195656,116.453079 99.096306,117.090660 99.363014,117.975479 
	C98.452934,118.167191 98.176796,118.111664 97.900650,118.056137 
z"/>
<path fill="#0F151C" opacity="1.000000" stroke="none" 
	d="
M75.610100,90.675583 
	C74.683304,90.447456 74.131607,89.921364 73.900116,89.150040 
	C74.808609,89.395744 75.396912,89.886681 75.610100,90.675583 
z"/>
<path fill="#131313" opacity="1.000000" stroke="none" 
	d="
M242.109131,282.116272 
	C241.927658,282.726105 241.458542,283.041992 240.709747,283.431732 
	C240.251236,283.286499 240.072372,283.067383 239.853973,282.376251 
	C240.290909,281.681732 240.767365,281.459259 241.243820,281.236755 
	C241.436386,281.431946 241.628937,281.627136 242.109131,282.116272 
z"/>
<path fill="#0F151C" opacity="1.000000" stroke="none" 
	d="
M66.596794,88.481796 
	C66.430832,89.255577 65.965057,89.754997 65.191017,90.005829 
	C65.354164,89.240631 65.825569,88.724037 66.596794,88.481796 
z"/>
<path fill="#1A1D21" opacity="1.000000" stroke="none" 
	d="
M76.708740,92.510864 
	C75.825813,92.216049 75.506874,91.851410 75.135437,91.126068 
	C75.812859,91.323921 76.542793,91.882484 76.708740,92.510864 
z"/>
<path fill="#141210" opacity="1.000000" stroke="none" 
	d="
M184.783218,102.665222 
	C184.853333,102.040001 185.225037,101.766800 185.820923,101.433189 
	C186.304321,101.575912 186.563568,101.779030 186.979889,102.485855 
	C186.662292,103.226074 186.187622,103.462585 185.712936,103.699089 
	C185.503555,103.471802 185.294174,103.244522 184.783218,102.665222 
z"/>
<path fill="#0F151C" opacity="1.000000" stroke="none" 
	d="
M83.199158,98.380783 
	C82.509354,98.557045 81.855118,98.313805 81.189186,97.653961 
	C81.863235,97.478668 82.548981,97.719978 83.199158,98.380783 
z"/>
<path fill="#1A1D21" opacity="1.000000" stroke="none" 
	d="
M98.062912,118.299149 
	C98.176796,118.111664 98.452934,118.167191 99.128052,118.373787 
	C99.527023,118.524857 99.447365,118.707069 99.379654,118.780281 
	C98.949692,118.749718 98.587433,118.645935 98.062912,118.299149 
z"/>
<path fill="#141210" opacity="1.000000" stroke="none" 
	d="
M215.119324,113.062111 
	C214.570038,113.199249 214.016037,112.991585 213.772247,112.353149 
	C214.426529,112.187355 214.770584,112.452332 215.119324,113.062111 
z"/>
<path fill="#0F151C" opacity="1.000000" stroke="none" 
	d="
M84.238930,99.509583 
	C83.769180,99.737892 83.369926,99.624779 83.075104,99.160843 
	C83.556168,98.929390 83.932793,99.048775 84.238930,99.509583 
z"/>
<path fill="#437EC3" opacity="1.000000" stroke="none" 
	d="
M104.695305,286.925293 
	C96.559998,277.198578 88.707481,267.623169 80.976227,257.950806 
	C72.808296,247.732117 64.755920,237.421097 56.369637,226.960419 
	C47.197540,218.409546 45.717041,207.797150 46.662479,196.353394 
	C46.973984,192.582855 46.733753,188.766739 47.121681,184.304520 
	C50.257797,180.508575 52.726303,182.281723 54.574368,184.486191 
	C62.959061,194.487930 71.109200,204.685898 79.451035,214.724106 
	C89.258698,226.526169 99.177071,238.236206 109.047432,249.986160 
	C109.047432,262.843140 109.047432,275.700104 109.047432,288.889557 
	C107.880157,288.350220 106.455788,287.692078 104.695305,286.925293 
z"/>
<path fill="#DC6033" opacity="1.000000" stroke="none" 
	d="
M112.940689,148.973480 
	C108.738335,139.719269 110.686226,130.163879 110.430145,120.128891 
	C113.365265,115.264587 115.634003,114.777740 118.315605,118.011238 
	C128.803589,130.657715 139.161774,143.412170 149.687775,156.026718 
	C157.234497,165.070862 164.971451,173.956268 172.623535,182.912476 
	C172.623535,195.646042 172.623535,208.379608 172.623535,222.254715 
	C169.220886,218.181885 166.382568,214.864319 163.630157,211.476944 
	C146.779465,190.738968 129.948257,169.985168 112.940689,148.973480 
z"/>
<path fill="#ECA740" opacity="1.000000" stroke="none" 
	d="
M236.498260,274.513306 
	C236.011703,276.068634 235.157562,277.611237 235.103333,279.181488 
	C234.887985,285.416229 234.529785,285.842926 227.447327,285.911438 
	C221.561386,280.237091 215.744461,274.865814 210.672623,268.864838 
	C199.318588,255.430801 188.277817,241.729477 177.277328,228.002487 
	C175.965134,226.365082 175.083679,223.903778 175.044403,221.804871 
	C174.833206,210.516510 174.951477,199.222015 175.313705,187.635437 
	C179.635727,191.993973 183.664597,196.593506 187.552933,201.308929 
	C202.165390,219.029587 216.713181,236.803711 231.380356,254.478821 
	C232.009186,255.236618 233.582214,255.210907 234.715393,255.550171 
	C235.126816,255.965088 235.538223,256.380005 236.241043,256.895660 
	C236.695160,257.814484 236.857849,258.632568 236.559479,259.158325 
	C235.716019,261.412109 235.333603,263.958221 234.879425,266.798676 
	C234.855957,267.894379 234.904266,268.695740 234.950073,270.002014 
	C235.637909,271.190277 236.328232,271.873566 236.861511,272.719482 
	C236.635727,273.425812 236.567001,273.969574 236.498260,274.513306 
z"/>
<path fill="#DD6033" opacity="1.000000" stroke="none" 
	d="
M173.105347,292.535156 
	C170.155365,289.633698 167.168488,286.728455 163.935455,283.604919 
	C147.415344,264.295685 131.191116,245.161957 114.815254,226.158890 
	C112.283745,223.221237 111.002693,220.330078 111.073196,216.361786 
	C111.265083,205.561905 111.022301,194.754303 111.264313,183.699005 
	C112.054482,184.124054 112.491470,184.833237 113.015678,185.470718 
	C125.292282,200.399689 137.517914,215.371185 149.885086,230.224838 
	C157.382645,239.229797 165.101898,248.050156 172.721542,256.953461 
	C172.792221,267.661469 172.862915,278.369476 172.931519,289.967346 
	C172.954590,291.428009 172.979736,291.998810 173.004883,292.569611 
	C173.004868,292.569611 173.068451,292.531433 173.105347,292.535156 
z"/>
<path fill="#EAA640" opacity="1.000000" stroke="none" 
	d="
M174.036118,138.451630 
	C174.083954,135.311371 174.131775,132.171127 174.268097,128.472488 
	C179.058090,122.127060 180.452499,122.013466 185.453400,128.010559 
	C199.624359,145.004425 213.654053,162.116028 227.768341,179.157257 
	C229.658279,181.439133 231.715088,183.582794 234.116486,186.372406 
	C234.618500,195.946838 234.698654,204.939301 234.588806,214.056427 
	C234.199844,214.417862 234.064209,214.686600 233.600677,215.060760 
	C231.212708,214.723053 229.215912,214.311890 227.056244,213.603180 
	C222.644394,208.424881 218.395416,203.544113 214.146439,198.663345 
	C203.504074,185.822495 192.746796,173.074112 182.292664,160.081787 
	C179.337479,156.409103 177.268616,152.023285 174.600830,147.355377 
	C174.320770,146.344208 174.233154,145.942184 174.212616,145.162781 
	C174.198502,142.674149 174.117310,140.562881 174.036118,138.451630 
z"/>
<path fill="#E38563" opacity="1.000000" stroke="none" 
	d="
M172.788422,256.492737 
	C165.101898,248.050156 157.382645,239.229797 149.885086,230.224838 
	C137.517914,215.371185 125.292282,200.399689 113.015678,185.470718 
	C112.491470,184.833237 112.054482,184.124054 111.330826,183.235901 
	C111.084785,178.217392 111.084785,173.411270 111.084785,167.674210 
	C112.587891,169.294601 113.792747,170.477722 114.867401,171.769211 
	C132.399597,192.839050 149.780289,214.037460 167.539810,234.913666 
	C171.457413,239.518799 173.762894,244.020096 172.917419,250.054642 
	C172.643234,252.011566 172.862015,254.037598 172.788422,256.492737 
z"/>
<path fill="#E48563" opacity="1.000000" stroke="none" 
	d="
M172.703064,182.457687 
	C164.971451,173.956268 157.234497,165.070862 149.687775,156.026718 
	C139.161774,143.412170 128.803589,130.657715 118.315605,118.011238 
	C115.634003,114.777740 113.365265,115.264587 110.489899,119.657852 
	C110.206367,116.762093 109.905701,113.602936 110.153000,110.487282 
	C110.576813,105.147644 112.778236,103.302094 118.458084,103.367439 
	C136.252502,124.482506 153.687164,145.494888 171.013290,166.596375 
	C172.059021,167.869980 172.622528,169.825668 172.744232,171.512054 
	C172.995377,174.991806 172.796402,178.504028 172.703064,182.457687 
z"/>
<path fill="#6F9CD0" opacity="1.000000" stroke="none" 
	d="
M47.356796,116.721619 
	C47.010887,113.485382 47.037827,110.018646 46.856972,106.562790 
	C46.625515,102.139915 49.342724,100.740387 52.800625,101.676201 
	C55.473309,102.399506 58.064655,104.260559 60.121437,106.216080 
	C62.852417,108.812607 65.028236,111.993034 67.680084,115.187958 
	C68.284576,115.763084 68.651573,116.072823 69.179947,116.596825 
	C70.873482,118.556503 72.405647,120.301933 73.937805,122.047356 
	C73.937805,122.047356 73.997192,122.006668 74.036331,122.392212 
	C75.103386,123.972351 76.131310,125.166946 77.159225,126.361542 
	C77.618965,125.933533 78.078705,125.505524 78.538445,125.077515 
	C78.441345,125.359787 78.311577,125.636452 78.261894,125.926834 
	C78.239418,126.058212 78.376083,126.216820 78.319382,126.744476 
	C85.100060,135.491425 92.001923,143.856964 98.903778,152.222504 
	C99.678436,153.283279 100.286034,154.537582 101.254631,155.373688 
	C107.968712,161.169373 110.084862,168.503250 108.692665,177.513885 
	C105.132050,174.405762 101.372963,171.057205 98.185287,167.232422 
	C84.923004,151.319382 71.887192,135.217728 58.646053,119.286858 
	C54.742302,114.590111 51.719112,114.032837 47.356796,116.721619 
z"/>
<path fill="#EDBA6C" opacity="1.000000" stroke="none" 
	d="
M234.812683,255.090485 
	C233.582214,255.210907 232.009186,255.236618 231.380356,254.478821 
	C216.713181,236.803711 202.165390,219.029587 187.552933,201.308929 
	C183.664597,196.593506 179.635727,191.993973 175.387680,187.172089 
	C175.103973,182.203278 175.103973,177.403625 175.103973,171.550720 
	C179.864212,177.210602 184.169128,182.263153 188.402542,187.374924 
	C201.314880,202.966354 213.794098,218.943878 227.289429,234.012085 
	C232.901321,240.278076 235.161652,246.723953 234.812683,255.090485 
z"/>
<path fill="#6F9BD0" opacity="1.000000" stroke="none" 
	d="
M109.137360,249.530426 
	C99.177071,238.236206 89.258698,226.526169 79.451035,214.724106 
	C71.109200,204.685898 62.959061,194.487930 54.574368,184.486191 
	C52.726303,182.281723 50.257797,180.508575 47.206413,183.845367 
	C46.847183,181.897720 46.393780,179.661514 46.823837,177.610535 
	C47.221355,175.714737 48.227592,172.901596 49.571907,172.494598 
	C51.581207,171.886261 54.231869,172.738281 56.394318,173.545837 
	C57.648598,174.014252 58.540367,175.562180 59.495014,176.707855 
	C74.705132,194.961746 89.633423,213.460938 105.252106,231.357788 
	C110.190392,237.016373 108.863647,242.976242 109.137360,249.530426 
z"/>
<path fill="#9B6B21" opacity="1.000000" stroke="none" 
	d="
M247.033401,253.003510 
	C246.917953,260.221802 246.707031,267.440430 246.734116,274.658173 
	C246.744904,277.536743 245.781219,279.383759 242.528992,279.711060 
	C242.086441,268.998108 241.722977,258.670898 242.149521,248.376450 
	C242.443909,241.271790 239.526764,235.794296 235.209335,230.828598 
	C220.631256,214.061691 205.851257,197.470093 191.309753,180.671829 
	C187.563629,176.344345 184.408951,171.504883 180.982559,166.900620 
	C183.319778,164.448563 184.635681,166.297516 186.084869,168.041351 
	C194.850815,178.589325 203.647583,189.111694 212.859039,200.124298 
	C217.518967,205.418243 221.753891,210.230515 226.201691,215.320343 
	C229.041428,216.007538 231.668259,216.417130 234.608749,216.727158 
	C235.901764,216.208206 236.881134,215.788818 238.083313,215.633240 
	C239.627869,216.559433 240.949631,217.221848 242.222351,217.918549 
	C242.173325,217.952850 242.076645,217.880493 242.071655,218.306519 
	C242.568924,218.803253 243.071182,218.873962 243.630127,218.898056 
	C243.686829,218.851425 244.054855,219.065872 244.054855,219.065872 
	C248.844147,229.384201 246.541580,240.347763 246.971710,251.780670 
	C246.996048,252.666595 247.014725,252.835052 247.033401,253.003510 
z"/>
<path fill="#CA8B2B" opacity="1.000000" stroke="none" 
	d="
M180.621994,166.971344 
	C184.408951,171.504883 187.563629,176.344345 191.309753,180.671829 
	C205.851257,197.470093 220.631256,214.061691 235.209335,230.828598 
	C239.526764,235.794296 242.443909,241.271790 242.149521,248.376450 
	C241.722977,258.670898 242.086441,268.998108 242.166367,279.799927 
	C242.084259,280.575378 241.876709,280.793854 241.420471,281.090332 
	C240.767365,281.459259 240.290909,281.681732 239.590485,282.043762 
	C238.623276,281.742126 237.367004,281.417358 237.235428,280.837402 
	C236.876282,279.254547 236.991714,277.563995 236.708710,275.214722 
	C236.567001,273.969574 236.635727,273.425812 236.867508,272.227234 
	C236.337875,270.880615 235.645218,270.188873 234.952560,269.497101 
	C234.904266,268.695740 234.855957,267.894379 235.352798,267.011292 
	C236.272141,264.436615 236.646347,261.943665 237.020538,259.450684 
	C236.857849,258.632568 236.695160,257.814484 236.534821,256.968140 
	C237.560120,248.583832 236.317673,241.221527 230.429108,234.343109 
	C212.206161,213.056885 194.510269,191.319473 176.202301,169.266418 
	C177.808090,168.386459 179.034760,167.714264 180.621994,166.971344 
z"/>
<path fill="#E38463" opacity="1.000000" stroke="none" 
	d="
M149.644104,284.823853 
	C150.904648,289.468903 150.101852,292.731415 144.334595,292.958435 
	C133.513474,280.342102 123.083565,267.807648 112.366119,255.097412 
	C112.078590,250.371323 112.078590,245.821014 112.078590,239.965149 
	C125.016205,255.444977 137.204559,270.028320 149.644104,284.823853 
z"/>
<path fill="#883517" opacity="1.000000" stroke="none" 
	d="
M115.955406,163.858459 
	C118.115639,162.105225 119.775993,161.452698 122.048737,164.282227 
	C139.059799,185.460754 156.251801,206.494019 173.409088,227.554901 
	C175.184937,229.734772 177.146225,231.762863 178.944321,233.925537 
	C180.561417,235.870529 180.011414,237.215820 177.025482,237.727661 
	C169.976700,229.572922 163.592697,221.534485 157.072342,213.608231 
	C143.404724,196.993683 129.665329,180.438202 115.955406,163.858459 
z"/>
<path fill="#AE441D" opacity="1.000000" stroke="none" 
	d="
M115.629456,163.908051 
	C129.665329,180.438202 143.404724,196.993683 157.072342,213.608231 
	C163.592697,221.534485 169.976700,229.572922 176.673492,237.766815 
	C174.253418,240.462585 172.819626,238.286240 171.310547,236.470444 
	C155.987350,218.033264 140.672104,199.589478 125.346313,181.154449 
	C121.093384,176.038712 116.812889,170.945892 112.275146,165.519836 
	C113.422707,164.927856 114.363113,164.442749 115.629456,163.908051 
z"/>
<path fill="#26558E" opacity="1.000000" stroke="none" 
	d="
M112.967758,233.939316 
	C111.561981,233.460495 109.646645,233.411728 108.825859,232.439209 
	C93.288437,214.029343 77.890579,195.501785 62.434597,177.023041 
	C60.005650,174.119064 57.435257,171.333389 54.748711,168.287170 
	C54.885300,168.182556 55.607422,167.629471 56.794788,167.292755 
	C64.398064,175.487366 71.657845,183.360657 78.645805,191.468246 
	C89.320343,203.853104 99.838608,216.373459 110.330139,228.914169 
	C111.516495,230.332245 112.103058,232.252121 112.967758,233.939316 
z"/>
<path fill="#9A6A21" opacity="1.000000" stroke="none" 
	d="
M221.901093,291.310242 
	C221.639313,291.488708 221.275177,291.595123 221.043350,291.295135 
	C211.678406,279.965973 202.444321,269.018250 193.453384,257.874390 
	C188.737030,252.028687 184.446762,245.839203 179.964066,239.804993 
	C182.486649,237.626343 183.709610,239.598083 185.129410,241.335526 
	C195.562668,254.102753 205.916809,266.937866 216.563293,279.525391 
	C219.291656,282.751221 222.976654,285.167908 226.544312,288.084320 
	C225.298599,289.185486 223.730728,290.158630 221.901093,291.310242 
z"/>
<path fill="#1D426F" opacity="1.000000" stroke="none" 
	d="
M113.303329,233.847961 
	C112.103058,232.252121 111.516495,230.332245 110.330139,228.914169 
	C99.838608,216.373459 89.320343,203.853104 78.645805,191.468246 
	C71.657845,183.360657 64.398064,175.487366 57.112663,167.191742 
	C59.042904,163.695038 60.493351,165.872025 61.897964,167.510086 
	C70.666267,177.735596 79.410614,187.981674 88.153687,198.228806 
	C96.673500,208.214294 105.160133,218.228226 113.714699,228.183823 
	C115.418663,230.166824 117.651161,231.945358 113.303329,233.847961 
z"/>
<path fill="#AF441D" opacity="1.000000" stroke="none" 
	d="
M157.216003,287.294647 
	C156.055908,288.120483 154.895828,288.946320 153.322098,290.066650 
	C152.822906,288.314301 152.446716,286.993774 151.944092,285.342346 
	C145.836868,277.522949 139.921890,269.980682 133.857880,262.560211 
	C126.953575,254.111496 119.916229,245.771484 112.556183,236.926956 
	C114.089172,236.199249 115.192818,235.675339 116.682144,235.471603 
	C117.574104,236.835373 117.889786,238.040359 118.615868,238.897858 
	C126.766975,248.524307 135.224960,257.902710 143.090332,267.755005 
	C148.092880,274.021301 154.963745,279.020691 157.216003,287.294647 
z"/>
<path fill="#873517" opacity="1.000000" stroke="none" 
	d="
M157.609833,287.175537 
	C154.963745,279.020691 148.092880,274.021301 143.090332,267.755005 
	C135.224960,257.902710 126.766975,248.524307 118.615868,238.897858 
	C117.889786,238.040359 117.574104,236.835373 117.033829,235.447861 
	C118.376923,235.676147 120.194420,235.868271 121.065269,236.877365 
	C134.745300,252.729019 148.303421,268.685913 162.129456,284.882965 
	C162.369354,285.147339 162.561371,285.030884 162.561371,285.030884 
	C161.042130,285.706055 159.522888,286.381226 157.609833,287.175537 
z"/>
<path fill="#C5882A" opacity="1.000000" stroke="none" 
	d="
M179.608566,239.872711 
	C184.446762,245.839203 188.737030,252.028687 193.453384,257.874390 
	C202.444321,269.018250 211.678406,279.965973 220.854324,291.310974 
	C219.472427,292.391144 218.047714,293.155487 216.404175,294.037262 
	C216.039642,292.351624 215.738663,290.959961 215.118668,288.963745 
	C213.048508,286.357330 211.265320,284.382477 209.551514,282.349121 
	C199.041931,269.880157 188.548050,257.397980 178.048950,244.920197 
	C177.345352,243.880539 176.641754,242.840897 175.702377,241.452850 
	C177.040848,240.882706 178.146957,240.411560 179.608566,239.872711 
z"/>
<path fill="#893517" opacity="1.000000" stroke="none" 
	d="
M173.714081,137.934418 
	C174.117310,140.562881 174.198502,142.674149 173.835266,145.329529 
	C173.277939,146.907944 173.165054,147.942200 173.052155,148.976471 
	C175.623932,153.651123 178.195709,158.325760 181.041565,163.498596 
	C180.787140,163.662292 179.771851,164.315475 178.431793,165.044434 
	C167.971817,156.262527 167.927185,144.269516 167.867554,131.841110 
	C169.687332,133.413193 171.539673,135.415192 173.714081,137.934418 
z"/>
<path fill="#271E13" opacity="1.000000" stroke="none" 
	d="
M177.914566,245.159042 
	C188.548050,257.397980 199.041931,269.880157 209.551514,282.349121 
	C211.265320,284.382477 213.048508,286.357330 214.894302,288.682922 
	C214.675842,289.518646 214.362732,290.030640 213.991486,290.852295 
	C204.966446,280.288116 196.004135,269.410522 187.030243,258.542480 
	C183.753906,254.574554 180.450104,250.629318 177.034073,246.359283 
	C177.199600,245.829193 177.489883,245.613541 177.914566,245.159042 
z"/>
<path fill="#0D151E" opacity="1.000000" stroke="none" 
	d="
M99.029190,151.974457 
	C92.001923,143.856964 85.100060,135.491425 78.539024,126.838043 
	C81.063286,128.728287 83.403404,130.772644 85.399078,133.110962 
	C90.256508,138.802353 94.954117,144.630142 99.854538,150.709778 
	C99.713524,151.253174 99.434067,151.489807 99.029190,151.974457 
z"/>
<path fill="#1A1207" opacity="1.000000" stroke="none" 
	d="
M225.988831,215.042770 
	C221.753891,210.230515 217.518967,205.418243 213.138336,200.303894 
	C213.288651,199.736115 213.584671,199.470398 214.013565,198.934021 
	C218.395416,203.544113 222.644394,208.424881 226.802246,213.736389 
	C226.470352,214.459015 226.229599,214.750885 225.988831,215.042770 
z"/>
<path fill="#131313" opacity="1.000000" stroke="none" 
	d="
M173.401886,292.862427 
	C172.979736,291.998810 172.954590,291.428009 172.994995,290.432861 
	C173.452576,290.007446 173.844620,290.006348 174.530670,290.006958 
	C174.482773,291.057526 174.140839,292.106384 173.401886,292.862427 
z"/>
<path fill="#141210" opacity="1.000000" stroke="none" 
	d="
M173.332581,148.760040 
	C173.165054,147.942200 173.277939,146.907944 173.768188,145.706909 
	C174.233154,145.942184 174.320770,146.344208 174.396942,147.051651 
	C174.127991,147.752579 173.870483,148.148087 173.332581,148.760040 
z"/>
<path fill="#EEEFE9" opacity="1.000000" stroke="none" 
	d="
M162.545059,285.082092 
	C162.561371,285.030884 162.369354,285.147339 162.383850,285.202454 
	C162.398346,285.257568 162.305573,285.209442 162.292175,285.262604 
	C162.278793,285.315765 162.528748,285.133270 162.545059,285.082092 
z"/>
<path fill="#211A11" opacity="1.000000" stroke="none" 
	d="
M234.778809,213.931763 
	C234.698654,204.939301 234.618500,195.946838 234.441925,186.514572 
	C235.019608,176.467010 232.837357,168.281723 226.020172,160.632874 
	C213.128220,146.168182 201.318649,130.740417 188.999893,115.761726 
	C186.807495,113.095924 184.327576,110.666573 182.690887,107.768661 
	C185.579773,109.295418 187.758224,111.181526 189.936676,113.067642 
	C203.422363,129.670029 216.734390,146.418381 230.494553,162.790070 
	C234.894394,168.024948 236.421646,173.761261 236.560669,180.159531 
	C236.791336,190.776489 236.835861,201.397491 236.746185,212.608307 
	C235.948669,213.443802 235.363739,213.687790 234.778809,213.931763 
z"/>
<path fill="#D5A55C" opacity="1.000000" stroke="none" 
	d="
M190.258179,112.920700 
	C187.758224,111.181526 185.579773,109.295418 182.959274,107.327309 
	C182.517227,107.245316 182.504517,107.173386 182.516266,107.208862 
	C183.398315,106.222198 184.268600,105.200058 185.425903,103.938507 
	C186.187622,103.462585 186.662292,103.226074 187.342804,102.821014 
	C188.222168,102.251022 188.895691,101.849571 189.767410,101.229324 
	C198.197052,97.079926 198.197052,97.079926 205.265625,104.483025 
	C200.464630,107.457382 195.522156,110.115570 190.258179,112.920700 
z"/>
<path fill="#9D6C21" opacity="1.000000" stroke="none" 
	d="
M251.364594,186.921570 
	C251.019073,189.045898 250.244415,191.167374 249.638138,193.335938 
	C248.731979,196.577057 248.114822,199.908737 247.043015,203.090134 
	C246.388855,205.031952 245.112823,206.764267 243.716766,208.689453 
	C243.186020,204.570496 242.999329,200.353546 242.937042,196.134766 
	C242.856461,190.678299 246.358139,188.283783 251.364594,186.921570 
z"/>
<path fill="#141210" opacity="1.000000" stroke="none" 
	d="
M242.271378,217.884247 
	C240.949631,217.221848 239.627869,216.559433 238.119202,215.219452 
	C237.938812,213.989975 237.945328,213.438080 237.951843,212.886185 
	C238.062286,212.583923 238.263596,212.365311 238.781540,212.505768 
	C239.295517,213.531662 239.583679,214.282120 240.179382,215.142059 
	C241.081741,216.129089 241.676559,217.006668 242.271378,217.884247 
z"/>
<path fill="#131313" opacity="1.000000" stroke="none" 
	d="
M237.741699,212.893524 
	C237.945328,213.438080 237.938812,213.989975 237.896393,214.955658 
	C236.881134,215.788818 235.901764,216.208206 234.532639,216.265366 
	C234.092545,215.597855 234.042221,215.292587 233.991882,214.987305 
	C234.064209,214.686600 234.199844,214.417862 234.588806,214.056427 
	C235.363739,213.687790 235.948669,213.443802 236.823029,213.067566 
	C237.112457,212.935303 237.531570,212.900848 237.741699,212.893524 
z"/>
<path fill="#131313" opacity="1.000000" stroke="none" 
	d="
M239.871857,215.032593 
	C239.583679,214.282120 239.295517,213.531662 239.005539,212.465179 
	C239.568710,211.785019 240.133682,211.420868 241.010818,211.068573 
	C241.459518,211.235703 241.596054,211.391006 241.723892,212.092331 
	C241.100769,213.436432 240.486313,214.234512 239.871857,215.032593 
z"/>
<path fill="#141210" opacity="1.000000" stroke="none" 
	d="
M217.157959,118.253410 
	C217.384354,118.149384 217.624527,118.349518 217.912476,118.832779 
	C217.688568,118.954666 217.425720,118.768562 217.157959,118.253410 
z"/>
<path fill="#211A11" opacity="1.000000" stroke="none" 
	d="
M208.944946,108.337723 
	C209.146729,108.306763 209.436401,108.544090 209.801086,109.058655 
	C209.595016,109.092590 209.313919,108.849297 208.944946,108.337723 
z"/>
<path fill="#6F6F6F" opacity="1.000000" stroke="none" 
	d="
M330.994629,303.443420 
	C306.522491,302.207458 281.969208,300.645782 257.414337,299.108734 
	C251.503357,298.738739 249.006409,296.377808 248.906464,289.796478 
	C248.724945,277.845001 248.914963,265.887909 248.959076,253.217407 
	C248.941666,252.334579 248.915085,252.167496 248.888519,252.000397 
	C249.221100,237.957977 249.553665,223.915543 250.006653,209.413116 
	C254.253876,213.367554 258.627594,217.578476 262.463440,222.232727 
	C276.819916,239.652298 290.828094,257.361115 305.314117,274.670898 
	C313.497101,284.449005 322.357574,293.660187 330.994629,303.443420 
M290.863800,266.984406 
	C288.616089,259.767365 284.626190,256.230713 278.474030,256.002075 
	C272.755981,255.789566 267.288391,259.562500 265.012207,265.291443 
	C262.904755,270.595703 264.315948,276.434875 268.737732,280.172913 
	C272.991150,283.768585 277.866058,284.158600 282.712860,281.885498 
	C288.534241,279.155334 291.190674,274.244293 290.863800,266.984406 
z"/>
<path fill="#0F151C" opacity="1.000000" stroke="none" 
	d="
M74.188881,121.716156 
	C72.405647,120.301933 70.873482,118.556503 69.387924,116.443405 
	C71.103004,117.845467 72.771477,119.615211 74.188881,121.716156 
z"/>
<path fill="#0F151C" opacity="1.000000" stroke="none" 
	d="
M78.331543,124.758087 
	C78.078705,125.505524 77.618965,125.933533 77.159225,126.361542 
	C76.131310,125.166946 75.103386,123.972351 74.011810,122.418823 
	C75.340317,122.852821 76.732483,123.645744 78.331543,124.758087 
z"/>
<path fill="#211A11" opacity="1.000000" stroke="none" 
	d="
M174.877777,112.750610 
	C174.668228,112.799095 174.541397,112.619522 174.472443,112.419952 
	C174.451675,112.359901 174.591873,112.244255 174.809525,112.076721 
	C174.968033,112.171204 174.975357,112.343048 174.877777,112.750610 
z"/>
<path fill="#427DC0" opacity="1.000000" stroke="none" 
	d="
M77.997040,289.147461 
	C69.051216,288.778717 60.104141,288.437317 51.160107,288.029266 
	C46.910931,287.835449 46.150505,284.829956 46.189152,281.416565 
	C46.281200,273.286530 46.458603,265.157501 47.065456,256.431061 
	C50.902626,254.202484 54.500546,254.432175 56.554142,257.337708 
	C63.932892,267.777588 70.884193,278.519623 77.997040,289.147461 
z"/>
<path fill="#6F9BD0" opacity="1.000000" stroke="none" 
	d="
M78.428375,289.267578 
	C70.884193,278.519623 63.932892,267.777588 56.554142,257.337708 
	C54.500546,254.432175 50.902626,254.202484 47.156738,256.008667 
	C46.725803,253.541199 46.421032,250.876328 46.662445,248.261917 
	C47.112850,243.384262 51.179024,241.533585 55.230888,244.288803 
	C56.431900,245.105484 57.466850,246.260132 58.354282,247.429596 
	C66.860565,258.639008 75.406235,269.821106 83.699181,281.187164 
	C84.980339,282.943054 85.039093,285.590820 85.663155,287.826141 
	C83.395340,288.346680 81.127533,288.867188 78.428375,289.267578 
z"/>
<path fill="#1D426F" opacity="1.000000" stroke="none" 
	d="
M57.876198,239.879211 
	C60.497822,237.440109 62.317879,237.721588 64.651207,240.765396 
	C74.807999,254.014832 85.262207,267.036224 95.598328,280.148407 
	C96.090820,280.773163 96.487625,281.473358 97.192894,282.536072 
	C95.510353,283.640076 94.031334,284.610504 92.253372,285.302124 
	C91.147766,283.088409 90.681610,280.903442 89.475830,279.261749 
	C84.093285,271.933258 78.629959,264.655334 72.942253,257.562469 
	C68.099976,251.523911 62.911507,245.762970 57.876198,239.879211 
z"/>
<path fill="#26568E" opacity="1.000000" stroke="none" 
	d="
M57.565796,239.946579 
	C62.911507,245.762970 68.099976,251.523911 72.942253,257.562469 
	C78.629959,264.655334 84.093285,271.933258 89.475830,279.261749 
	C90.681610,280.903442 91.147766,283.088409 91.932816,285.385834 
	C90.873039,285.533173 89.352585,285.685303 88.867622,285.048645 
	C78.170792,271.006073 67.657982,256.822754 56.891697,242.834335 
	C55.626923,241.191071 54.990662,240.716003 57.565796,239.946579 
z"/>
<path fill="#271E13" opacity="1.000000" stroke="none" 
	d="
M198.202515,296.909241 
	C198.002441,296.997772 197.996429,296.580414 197.991486,296.371765 
	C198.156403,296.128723 198.326294,296.094360 198.747589,296.126282 
	C198.859711,296.458527 198.660889,296.667877 198.202515,296.909241 
z"/>
<path fill="#494949" opacity="1.000000" stroke="none" 
	d="
M280.055542,192.040741 
	C299.654236,216.066071 319.243713,240.098938 338.871704,264.100311 
	C340.231995,265.763702 341.878876,267.192749 343.686707,268.892334 
	C349.142303,271.800476 354.303741,274.547028 359.539551,277.333160 
	C355.891479,279.288574 351.490997,283.513580 347.028595,283.580048 
	C341.074463,283.668640 334.188843,281.806519 329.316711,278.444275 
	C323.374725,274.343719 319.111328,267.812805 314.113586,262.340668 
	C312.438995,260.507111 310.738647,258.697083 308.795532,256.678955 
	C302.856110,249.352875 297.263184,242.148376 291.464905,235.113113 
	C282.586761,224.340912 273.561096,213.690338 264.627289,202.963760 
	C264.228424,202.484863 264.118713,201.765152 264.060150,200.472504 
	C269.515839,197.205185 274.785706,194.622971 280.055542,192.040741 
z"/>
<path fill="#737373" opacity="1.000000" stroke="none" 
	d="
M280.012695,191.687408 
	C274.785706,194.622971 269.515839,197.205185 264.094360,200.134323 
	C261.181305,197.996353 258.419830,195.511475 255.220947,192.632950 
	C259.526062,190.248672 262.999481,188.325012 266.730896,186.177063 
	C273.991364,183.562836 275.389587,184.142471 280.012695,191.687408 
z"/>
<path fill="#D6D7D1" opacity="1.000000" stroke="none" 
	d="
M240.179398,215.142059 
	C240.486313,214.234512 241.100769,213.436432 241.889008,212.354889 
	C243.760910,211.211365 245.458984,210.351273 247.309906,209.413788 
	C247.309906,213.611572 247.309906,217.451477 247.309906,222.025848 
	C246.062103,220.923767 245.397446,220.336731 244.393829,219.407776 
	C244.054855,219.065872 243.686829,218.851425 243.491302,218.579895 
	C242.889404,218.165756 242.483032,218.023132 242.076645,217.880493 
	C242.076645,217.880493 242.173325,217.952850 242.222351,217.918549 
	C241.676559,217.006668 241.081741,216.129089 240.179398,215.142059 
z"/>
<path fill="#18120F" opacity="1.000000" stroke="none" 
	d="
M248.583954,252.000183 
	C248.915085,252.167496 248.941666,252.334579 248.916855,252.750519 
	C248.458618,252.999771 248.051773,253.000198 247.339172,253.002060 
	C247.014725,252.835052 246.996048,252.666595 247.018738,252.247101 
	C247.466537,251.997345 247.872955,251.998657 248.583954,252.000183 
z"/>
<path fill="#484848" opacity="1.000000" stroke="none" 
	d="
M355.653961,282.611877 
	C357.988098,281.274719 360.021667,280.148224 362.017639,278.958588 
	C365.216125,277.052216 367.098450,278.330994 367.902557,281.545471 
	C369.976166,289.834961 367.976288,293.684937 360.141174,297.200073 
	C357.651367,298.317108 355.280487,299.699188 353.475586,300.637482 
	C352.417267,295.648224 351.421692,290.954712 350.263153,285.492889 
	C351.322205,284.929565 353.329346,283.861877 355.653961,282.611877 
z"/>
<path fill="#18120F" opacity="1.000000" stroke="none" 
	d="
M236.559479,259.158325 
	C236.646347,261.943665 236.272141,264.436615 235.424576,266.716980 
	C235.333603,263.958221 235.716019,261.412109 236.559479,259.158325 
z"/>
<path fill="#18120F" opacity="1.000000" stroke="none" 
	d="
M234.950073,270.002014 
	C235.645218,270.188873 236.337875,270.880615 237.024551,272.064636 
	C236.328232,271.873566 235.637909,271.190277 234.950073,270.002014 
z"/>
<path fill="#141210" opacity="1.000000" stroke="none" 
	d="
M233.600677,215.060760 
	C234.042221,215.292587 234.092545,215.597855 234.218994,216.364929 
	C231.668259,216.417130 229.041428,216.007538 226.201706,215.320343 
	C226.229599,214.750885 226.470352,214.459015 226.965118,214.033920 
	C229.215912,214.311890 231.212708,214.723053 233.600677,215.060760 
z"/>
<path fill="#141210" opacity="1.000000" stroke="none" 
	d="
M242.071655,218.306519 
	C242.483032,218.023132 242.889404,218.165756 243.434601,218.626526 
	C243.071182,218.873962 242.568924,218.803253 242.071655,218.306519 
z"/>
<path fill="#1A1A1A" opacity="1.000000" stroke="none" 
	d="
M290.903687,267.392395 
	C291.190674,274.244293 288.534241,279.155334 282.712860,281.885498 
	C277.866058,284.158600 272.991150,283.768585 268.737732,280.172913 
	C264.315948,276.434875 262.904755,270.595703 265.012207,265.291443 
	C267.288391,259.562500 272.755981,255.789566 278.474030,256.002075 
	C284.626190,256.230713 288.616089,259.767365 290.903687,267.392395 
M284.011139,260.393158 
	C283.274933,260.010193 282.568268,259.549622 281.797882,259.256531 
	C275.878815,257.004486 269.549866,259.928009 267.247650,265.948273 
	C265.158142,271.412323 267.501678,277.550842 272.579926,279.915283 
	C277.763947,282.328979 284.640961,279.651672 287.152161,273.989136 
	C289.303986,269.136841 288.720459,264.616058 284.011139,260.393158 
z"/>
<path fill="#EFEFEF" opacity="1.000000" stroke="none" 
	d="
M284.306274,260.638916 
	C288.720459,264.616058 289.303986,269.136841 287.152161,273.989136 
	C284.640961,279.651672 277.763947,282.328979 272.579926,279.915283 
	C267.501678,277.550842 265.158142,271.412323 267.247650,265.948273 
	C269.549866,259.928009 275.878815,257.004486 281.797882,259.256531 
	C282.568268,259.549622 283.274933,260.010193 284.306274,260.638916 
z"/>
</svg>